<svg xmlns="http://www.w3.org/2000/svg" width="1200" height="800" viewBox="0 0 1200 800" role="img" aria-label="">
  <defs>
    <linearGradient id="bg" x1="0%" y1="0%" x2="100%" y2="100%">
      <stop offset="0%" style="stop-color:#fafafa"/>
      <stop offset="100%" style="stop-color:#e4e4e7"/>
    </linearGradient>
  </defs>
  <rect width="1200" height="800" fill="url(#bg)"/>
  <g fill="#71717a" opacity="0.35">
    <circle cx="80" cy="80" r="2.5"/>
    <circle cx="200" cy="80" r="2.5"/>
    <circle cx="320" cy="80" r="2.5"/>
    <circle cx="440" cy="80" r="2.5"/>
    <circle cx="560" cy="80" r="2.5"/>
    <circle cx="680" cy="80" r="2.5"/>
    <circle cx="800" cy="80" r="2.5"/>
    <circle cx="920" cy="80" r="2.5"/>
    <circle cx="1040" cy="80" r="2.5"/>
    <circle cx="80" cy="200" r="2.5"/>
    <circle cx="200" cy="200" r="2.5"/>
    <circle cx="320" cy="200" r="2.5"/>
    <circle cx="440" cy="200" r="2.5"/>
    <circle cx="560" cy="200" r="2.5"/>
    <circle cx="680" cy="200" r="2.5"/>
    <circle cx="800" cy="200" r="2.5"/>
    <circle cx="920" cy="200" r="2.5"/>
    <circle cx="1040" cy="200" r="2.5"/>
    <circle cx="80" cy="320" r="2.5"/>
    <circle cx="200" cy="320" r="2.5"/>
    <circle cx="320" cy="320" r="2.5"/>
    <circle cx="440" cy="320" r="2.5"/>
    <circle cx="560" cy="320" r="2.5"/>
    <circle cx="680" cy="320" r="2.5"/>
    <circle cx="800" cy="320" r="2.5"/>
    <circle cx="920" cy="320" r="2.5"/>
    <circle cx="1040" cy="320" r="2.5"/>
    <circle cx="80" cy="440" r="2.5"/>
    <circle cx="200" cy="440" r="2.5"/>
    <circle cx="320" cy="440" r="2.5"/>
    <circle cx="440" cy="440" r="2.5"/>
    <circle cx="560" cy="440" r="2.5"/>
    <circle cx="680" cy="440" r="2.5"/>
    <circle cx="800" cy="440" r="2.5"/>
    <circle cx="920" cy="440" r="2.5"/>
    <circle cx="1040" cy="440" r="2.5"/>
    <circle cx="80" cy="560" r="2.5"/>
    <circle cx="200" cy="560" r="2.5"/>
    <circle cx="320" cy="560" r="2.5"/>
    <circle cx="440" cy="560" r="2.5"/>
    <circle cx="560" cy="560" r="2.5"/>
    <circle cx="680" cy="560" r="2.5"/>
    <circle cx="800" cy="560" r="2.5"/>
    <circle cx="920" cy="560" r="2.5"/>
    <circle cx="1040" cy="560" r="2.5"/>
    <circle cx="80" cy="680" r="2.5"/>
    <circle cx="200" cy="680" r="2.5"/>
    <circle cx="320" cy="680" r="2.5"/>
    <circle cx="440" cy="680" r="2.5"/>
    <circle cx="560" cy="680" r="2.5"/>
    <circle cx="680" cy="680" r="2.5"/>
    <circle cx="800" cy="680" r="2.5"/>
    <circle cx="920" cy="680" r="2.5"/>
    <circle cx="1040" cy="680" r="2.5"/>
  </g>
</svg>
